<?xml version="1.0" encoding="utf-8"?>
<!-- Generator: Adobe Illustrator 16.0.0, SVG Export Plug-In . SVG Version: 6.00 Build 0)  -->
<!DOCTYPE svg PUBLIC "-//W3C//DTD SVG 1.1//EN" "http://www.w3.org/Graphics/SVG/1.1/DTD/svg11.dtd">
<svg version="1.1" id="Layer_1" xmlns="http://www.w3.org/2000/svg" xmlns:xlink="http://www.w3.org/1999/xlink" x="0px" y="0px"
	 width="200px" height="35px" viewBox="0 0 200 35" enable-background="new 0 0 200 35" xml:space="preserve">
<g id="g14">
	<g id="g24" transform="translate(209.9687,310.4388)">
		<path id="path26" fill="#FFFFFF" d="M-208.75-279.974c0.097-1.432,0.209-2.864,0.288-4.298c0.23-4.158,0.447-8.317,0.67-12.476
			c0.008-0.155,0.034-0.309,0.055-0.498h5.525v2.522c0.576-0.527,1.13-1.125,1.774-1.605c2.471-1.841,7.032-2.023,9.661-0.412
			c1.693,1.038,2.634,2.6,2.632,4.548c-0.003,2.79-0.196,5.579-0.327,8.368c-0.093,1.988-0.216,3.976-0.327,5.963
			c-0.013,0.223-0.04,0.446-0.063,0.702h-5.845c0.063-1.218,0.125-2.398,0.186-3.58c0.152-2.947,0.339-5.895,0.448-8.844
			c0.103-2.825-0.909-3.777-3.74-3.652c-2.844,0.125-4.334,1.567-4.494,4.392c-0.199,3.496-0.374,6.993-0.562,10.489
			c-0.021,0.385-0.058,0.769-0.096,1.267h-5.787V-279.974z"/>
	</g>
	<g id="g28" transform="translate(675.985,334.0633)">
		<path id="path30" fill="#FFFFFF" d="M-476.865-313.63c-1.9-0.011-3.799-0.021-5.699-0.033c-0.042,0-0.084-0.029-0.126-0.045
			c-0.589-3.083-3.49-3.737-5.79-2.931c-1.432,0.502-2.151,1.671-2.562,3.021c-0.559,1.851-0.611,3.748-0.142,5.628
			c0.473,1.894,1.901,3.145,3.554,3.208c1.96,0.075,3.976-0.961,4.45-2.926c0.039-0.161,0.277-0.388,0.427-0.39
			c1.827-0.027,3.654-0.019,5.558-0.019c-0.147,1.172-0.54,2.18-1.13,3.104c-1.925,3.014-4.792,4.412-8.258,4.722
			c-1.51,0.136-3.012,0.051-4.487-0.382c-2.871-0.84-4.868-2.623-5.73-5.493c-0.959-3.188-0.808-6.388,0.431-9.48
			c1.152-2.881,3.327-4.665,6.332-5.362c3.125-0.725,6.232-0.715,9.182,0.742c2.021,0.997,3.315,2.617,3.826,4.834
			c0.034,0.147,0.108,0.285,0.165,0.428V-313.63z"/>
	</g>
	<g id="g32" transform="translate(620.322,373.5452)">
		<path id="path34" fill="#FFFFFF" d="M-444.841-369.879c0.509,0.294,1.068,0.526,1.516,0.895c1.324,1.092,1.683,3.038,0.916,4.619
			c-0.725,1.493-2.41,2.335-4.118,2.06c-1.581-0.256-2.924-1.656-3.1-3.232c-0.21-1.87,0.709-3.471,2.365-4.125
			c0.167-0.066,0.332-0.144,0.497-0.215H-444.841z"/>
	</g>
	<g id="g36" transform="translate(278.3125,332.2297)">
		<path id="path38" fill="#FFFFFF" d="M-248.07-311.019h8.738c0.218-2.423-1.458-4.175-4.044-4.281
			C-245.838-315.401-248.123-313.326-248.07-311.019 M-233.399-307.563h-15.011c-0.339,1.498,0.66,3.581,2.119,4.297
			c1.823,0.896,3.629,0.766,5.35-0.328c0.21-0.134,0.466-0.288,0.558-0.497c0.384-0.863,1.086-0.854,1.87-0.833
			c1.531,0.041,3.064,0.013,4.687,0.013c-0.356,1.2-0.97,2.173-1.734,3.045c-1.619,1.848-3.684,2.907-6.096,3.275
			c-2.103,0.321-4.203,0.246-6.266-0.288c-3.319-0.86-5.41-2.935-6.112-6.326c-0.519-2.509-0.486-5.016,0.298-7.46
			c1.063-3.314,3.294-5.484,6.661-6.427c2.287-0.641,4.611-0.703,6.931-0.215c3.35,0.703,5.421,2.781,6.305,6.062
			C-233.346-311.414-233.281-309.545-233.399-307.563"/>
	</g>
	<g id="g40" transform="translate(452.5869,332.2174)">
		<path id="path42" fill="#FFFFFF" d="M-348.336-311.001c0.24-2.423-1.48-4.211-4.089-4.297c-2.458-0.081-4.708,1.996-4.651,4.297
			H-348.336z M-357.468-307.555c-0.227,2.604,1.64,4.743,4.124,4.852c1.501,0.064,2.995-0.154,3.917-1.386
			c0.603-0.803,1.226-0.822,2.019-0.814c1.486,0.017,2.973,0.006,4.575,0.006c-0.103,0.293-0.162,0.524-0.261,0.737
			c-1.337,2.865-3.59,4.65-6.626,5.383c-2.697,0.649-5.411,0.528-8.052-0.354c-2.671-0.892-4.395-2.732-5.115-5.46
			c-0.7-2.646-0.675-5.308,0.107-7.925c1.2-4.014,4.534-6.678,8.778-6.945c1.584-0.1,3.218-0.09,4.774,0.185
			c3.392,0.6,5.474,2.735,6.377,6.042c0.498,1.832,0.534,3.7,0.45,5.679H-357.468z"/>
	</g>
	<g id="g44" transform="translate(320.4466,360.0646)">
		<path id="path46" fill="#FFFFFF" d="M-272.312-350.673h5.82c-0.104,1.247-0.204,2.447-0.311,3.747h12.066
			c-0.072,1.326-0.137,2.548-0.207,3.849h-12.025c-0.05,0.494-0.112,0.916-0.134,1.34c-0.119,2.309-0.229,4.618-0.337,6.927
			c-0.015,0.319-0.015,0.643,0.007,0.961c0.081,1.18,0.405,2.276,1.629,2.705c1.308,0.458,2.646,0.435,3.749-0.554
			c1.018-0.913,1.143-2.195,1.214-3.465c0.089-1.598,0.161-3.195,0.242-4.832h5.397c0,0.671,0.029,1.346-0.006,2.018
			c-0.083,1.601-0.081,3.216-0.322,4.793c-0.58,3.807-3.34,6.363-7.257,6.861c-2.113,0.269-4.207,0.223-6.215-0.598
			c-2.795-1.143-4.298-3.274-4.314-6.255c-0.014-2.765,0.235-5.531,0.392-8.295c0.167-2.948,0.36-5.893,0.544-8.84
			C-272.371-350.421-272.339-350.529-272.312-350.673"/>
	</g>
	<g id="g48" transform="translate(555.4016,334.9263)">
		<path id="path50" fill="#FFFFFF" d="M-407.49-314.859h5.432c0,0.322,0.013,0.633-0.003,0.941
			c-0.095,1.806-0.115,3.621-0.313,5.414c-0.452,4.075-3.256,6.886-7.344,7.295c-1.485,0.148-3.033,0.142-4.502-0.104
			c-4.103-0.688-6.37-3.812-6.071-7.976c0.312-4.359,0.544-8.725,0.81-13.088c0.055-0.89,0.084-1.784,0.18-2.671
			c0.021-0.189,0.277-0.503,0.431-0.506c1.781-0.036,3.563-0.023,5.456-0.023c-0.101,1.284-0.196,2.499-0.297,3.796h12.058
			c-0.064,1.306-0.124,2.527-0.188,3.839h-12.082c-0.069,1.177-0.137,2.266-0.196,3.355c-0.086,1.578-0.21,3.154-0.229,4.732
			c-0.01,0.811,0.081,1.647,0.289,2.429c0.251,0.941,0.987,1.449,1.954,1.6c2.529,0.394,4.142-0.924,4.299-3.53
			c0.101-1.667,0.184-3.336,0.275-5.004C-407.525-314.515-407.505-314.669-407.49-314.859"/>
	</g>
	<g id="g52" transform="translate(517.712,303.8036)">
		<path id="path54" fill="#FFFFFF" d="M-385.806-270.52h-5.816c0.063-1.283,0.125-2.532,0.187-3.78
			c0.146-2.926,0.339-5.85,0.42-8.777c0.077-2.721-0.972-3.667-3.711-3.53c-2.908,0.146-4.376,1.6-4.536,4.52
			c-0.198,3.634-0.391,7.268-0.562,10.903c-0.023,0.507-0.13,0.722-0.7,0.71c-1.71-0.04-3.422-0.015-5.228-0.015
			c0.352-6.742,0.699-13.404,1.05-20.111h5.555v2.514c0.135-0.097,0.23-0.141,0.291-0.213c2.082-2.517,4.872-3.123,7.922-2.791
			c1.083,0.118,2.203,0.482,3.164,1c2.012,1.084,2.828,2.989,2.748,5.178c-0.176,4.711-0.479,9.417-0.732,14.125
			C-385.759-270.723-385.778-270.658-385.806-270.52"/>
	</g>
	<g id="g56" transform="translate(413.5616,320.9818)">
		<path id="path58" fill="#FFFFFF" d="M-325.884-294.994c-0.193,1.498-0.796,2.782-1.713,3.916
			c-2.362,2.923-5.545,3.964-9.178,3.919c-1.62-0.02-3.186-0.326-4.641-1.067c-2.461-1.254-3.855-3.321-4.373-5.979
			c-0.52-2.677-0.377-5.342,0.552-7.917c1.027-2.849,2.994-4.788,5.921-5.638c3.022-0.878,6.058-0.902,9.034,0.223
			c2.968,1.122,4.903,3.972,4.737,6.924h-5.82c-0.04-0.094-0.107-0.193-0.125-0.302c-0.272-1.666-1.66-2.72-3.22-2.91
			c-1.967-0.239-3.617,0.437-4.444,2.031c-1.268,2.441-1.372,5.02-0.46,7.585c0.596,1.678,2.099,2.594,3.711,2.505
			c2.096-0.115,3.513-1.16,4.054-2.988c0.026-0.088,0.05-0.175,0.086-0.301H-325.884z"/>
	</g>
	<g id="g60" transform="translate(586.8824,303.8165)">
		<path id="path62" fill="#FFFFFF" d="M-425.601-270.539h-5.858c0.352-6.688,0.702-13.365,1.056-20.081h5.473v2.161
			c0.937-1.072,1.962-1.985,3.299-2.287c1.298-0.292,2.646-0.361,4.091-0.544c-0.098,1.979-0.186,3.75-0.277,5.598
			c-0.439-0.026-0.824-0.1-1.199-0.064c-1.019,0.095-2.07,0.106-3.043,0.384c-1.812,0.519-2.836,2.106-2.954,4.27
			c-0.184,3.335-0.361,6.672-0.543,10.008C-425.565-270.938-425.582-270.778-425.601-270.539"/>
	</g>
	<g id="g64" transform="translate(609.9608,351.1399)">
		<path id="path66" fill="#FFFFFF" d="M-438.879-337.958h5.871c-0.352,6.706-0.701,13.383-1.055,20.094h-5.871
			C-439.582-324.569-439.231-331.229-438.879-337.958"/>
	</g>
</g>
</svg>
